HIERARCHY
ROOT hip
{
	OFFSET 0.000000 0.000000 0.000000 
	CHANNELS 6 Xposition Yposition Zposition Xrotation Zrotation Yrotation
	JOINT abdomen
	{
		OFFSET 0.000000 3.402643 0.000000 
		CHANNELS 3 Xrotation Zrotation Yrotation
		JOINT chest
		{
			OFFSET 0.000000 8.438565 -0.680529 
			CHANNELS 3 Xrotation Zrotation Yrotation
			JOINT neck
			{
				OFFSET 0.000000 10.207942 -0.272212 
				CHANNELS 3 Xrotation Zrotation Yrotation
				JOINT head
				{
					OFFSET 0.000000 3.130431 0.000000 
					CHANNELS 3 Xrotation Zrotation Yrotation
					End Site
					{
						OFFSET 0.000000 3.130435 0.000000 
					}
				}
			}
			JOINT lCollar
			{
				OFFSET 3.470700 6.669187 -0.816635 
				CHANNELS 3 Yrotation Zrotation Xrotation
				JOINT lShldr
				{
					OFFSET 3.198488 0.000000 0.000000 
					CHANNELS 3 Zrotation Yrotation Xrotation
					JOINT lForeArm
					{
						OFFSET 10.139888 0.000000 0.000000 
						CHANNELS 3 Yrotation Zrotation Xrotation
						JOINT lHand
						{
							OFFSET 8.370511 0.000000 0.000000 
							CHANNELS 3 Zrotation Yrotation Xrotation
							End Site
							{
								OFFSET 4.083176 0.000000 0.000000 
							}
						}
					}
				}
			}
			JOINT rCollar
			{
				OFFSET -3.470700 6.669187 -0.816635 
				CHANNELS 3 Yrotation Zrotation Xrotation
				JOINT rShldr
				{
					OFFSET -3.198488 0.000000 0.000000 
					CHANNELS 3 Zrotation Yrotation Xrotation
					JOINT rForeArm
					{
						OFFSET -10.139888 0.000000 0.000000 
						CHANNELS 3 Yrotation Zrotation Xrotation
						JOINT rHand
						{
							OFFSET -8.370511 0.000000 0.000000 
							CHANNELS 3 Zrotation Yrotation Xrotation
							End Site
							{
								OFFSET -4.083176 0.000000 0.000000 
							}
						}
					}
				}
			}
		}
	}
	JOINT lThigh
	{
		OFFSET 5.308129 -1.633274 1.361059 
		CHANNELS 3 Xrotation Zrotation Yrotation
		JOINT lShin
		{
			OFFSET -2.041588 -20.007561 0.000000 
			CHANNELS 3 Xrotation Zrotation Yrotation
			JOINT lFoot
			{
				OFFSET 0.000000 -19.190928 -1.224953 
				CHANNELS 3 Xrotation Yrotation Zrotation
				End Site
				{
					OFFSET 0.000000 -2.449906 4.627600 
				}
			}
		}
	}
	JOINT rThigh
	{
		OFFSET -5.308129 -1.633274 1.361059 
		CHANNELS 3 Xrotation Zrotation Yrotation
		JOINT rShin
		{
			OFFSET 2.041588 -20.007561 0.000000 
			CHANNELS 3 Xrotation Zrotation Yrotation
			JOINT rFoot
			{
				OFFSET 0.000000 -19.190928 -1.224953 
				CHANNELS 3 Xrotation Yrotation Zrotation
				End Site
				{
					OFFSET 0.000000 -2.449906 4.627600 
				}
			}
		}
	}
}
MOTION
Frames: 16
Frame Time: 0.033333
-0.119080 50.790768 0.701675 -7.851562 19.687502 32.356804 48.941448 -5.365038 -17.255060 -20.664063 3.769531 -6.718751 51.063168 8.107644 2.471410 -63.037113 -10.771483 7.255858 2.000000 -2.000000 0.000000 -83.349609 29.248049 2.500000 -66.745506 -0.970245 -2.600130 19.496088 65.228371 23.604061 -2.000000 2.000000 0.000000 76.865234 -45.791019 9.768391 72.694481 0.876148 -2.664424 -47.169468 -66.606667 45.210358 26.781061 -11.912363 -9.820091 3.307636 -5.895682 -0.374648 -10.365767 6.558433 2.524266 8.220382 -37.586071 -37.841408 30.406500 3.908689 2.504252 -16.791479 -4.671375 14.460711 
-0.230453 50.766071 1.326296 -8.769531 19.111326 30.725855 49.104237 -5.618112 -16.815140 -20.488281 3.779297 -6.347013 51.063168 8.107644 2.471410 -63.593754 -10.869140 7.568360 2.000000 -2.000000 0.000000 -82.929688 28.369141 3.510501 -67.273132 -0.961062 -2.610443 19.243681 66.777847 23.544102 -2.000000 2.000000 0.000000 77.050781 -46.376953 10.041758 72.692169 1.027609 -2.577411 -45.836529 -66.672104 43.885727 27.603231 -11.258520 -8.702829 3.288715 -5.849721 -0.538165 -10.751751 6.863877 2.191616 3.981627 -37.243931 -35.481911 30.753002 3.888909 2.535822 -16.882475 -3.767617 14.938860 
-0.379031 50.783104 1.976373 -9.638672 18.378906 29.143707 49.277187 -5.983236 -16.210398 -20.478516 3.945313 -5.791016 51.063168 8.107644 2.471410 -63.984379 -11.171874 8.066406 2.000000 -2.000000 0.000000 -82.294922 27.089846 4.789605 -67.791267 -0.942696 -2.631068 18.636486 67.244240 22.647089 -2.000000 2.000000 0.000000 77.343750 -47.099613 10.022143 72.694481 0.876148 -2.664424 -46.108566 -66.566750 44.300907 28.434772 -10.458255 -7.519429 3.298649 -5.867023 -0.392961 -10.947111 6.657340 1.420472 -0.188671 -36.968285 -33.172874 31.108418 3.870003 2.587044 -16.620424 -2.391865 15.359277 
-0.593546 50.783146 2.783144 -10.175780 17.666016 28.040073 49.438194 -6.240466 -15.762104 -20.312502 4.111328 -5.224609 51.063168 8.107644 2.471410 -64.570313 -11.435547 8.427736 2.000000 -2.000000 0.000000 -81.376953 25.048828 6.586166 -68.494690 -0.914014 -2.642515 18.141796 65.806465 21.673138 -2.000000 2.000000 0.000000 77.060547 -47.509769 10.168580 72.687538 1.048106 -2.762188 -46.048313 -66.829430 43.887054 29.086317 -9.461471 -6.603820 3.298424 -5.878425 -0.373586 -11.009828 6.352859 1.610554 -4.229420 -36.502209 -30.946444 31.821735 3.831065 2.611934 -16.419033 -1.626276 15.275011 
-1.388610 50.933846 6.058331 -9.687500 15.234375 28.752565 47.624706 -6.277854 -15.118581 -19.404297 4.775391 -4.160156 51.063168 8.107644 2.471410 -64.580078 -11.621093 7.763673 2.000000 -2.000000 0.000000 -81.542969 20.615234 8.554688 -69.569946 -1.209319 -2.674227 17.879072 63.191109 20.490824 -2.000000 2.000000 0.000000 77.382813 -46.494141 9.035888 72.166847 0.895081 -2.653547 -47.861279 -67.426651 46.082844 30.463535 -4.755620 -5.835034 3.120517 -5.842402 -0.221094 -8.223577 4.207634 -1.172555 -5.626605 -31.607489 -31.209900 30.443325 3.919076 2.548682 -16.623968 -2.707289 12.933780 
-2.183670 50.816696 9.333516 -9.218749 13.007813 29.386965 45.822033 -6.374920 -14.343307 -18.310547 5.615235 -3.017578 51.063168 8.107644 2.471410 -64.462898 -11.972655 7.294923 2.000000 -2.000000 0.000000 -81.738281 16.308594 10.559385 -70.437668 -1.020689 -2.626530 17.728657 60.715435 19.513092 -2.000000 2.000000 0.000000 77.382813 -45.839840 7.795730 71.814743 0.903699 -2.633491 -48.641964 -67.976265 47.319382 32.000591 0.077776 -4.770915 3.115922 -5.810916 -0.542636 -5.552982 1.706200 -3.151228 -6.709018 -26.845657 -31.933283 28.862436 4.446480 2.397499 -17.402960 -3.645152 10.162313 
-2.978729 50.447456 12.608693 -8.955077 10.585938 30.001793 43.995750 -6.463801 -13.563524 -17.402346 6.259766 -1.904297 51.063168 8.107644 2.471410 -64.492188 -12.148437 6.630859 2.000000 -2.000000 0.000000 -81.689453 11.796875 13.068403 -71.492928 -0.992573 -2.647723 17.923717 57.933998 18.722851 -2.000000 2.000000 0.000000 77.509766 -45.214844 6.474609 71.287109 0.922631 -2.622614 -49.895237 -68.569794 48.865898 33.551758 4.432719 -4.243267 2.959558 -5.283403 -0.475960 -3.000981 -1.023849 -5.239184 -8.078150 -21.886524 -32.736988 27.448484 4.515192 2.279031 -17.785938 -4.725486 7.561481 
-4.165909 50.608948 16.174986 -7.626953 7.314454 31.544214 41.506947 -4.644878 -13.640121 -19.453127 8.066406 -1.113281 51.063168 8.107644 2.471410 -62.548832 -12.568358 4.501954 2.000000 -2.000000 0.000000 -83.974609 15.712892 9.074912 -70.261879 -1.030439 -2.625963 16.535114 57.859760 20.541313 -2.000000 2.000000 0.000000 77.265625 -45.390625 5.032111 71.111313 0.932381 -2.622049 -50.473820 -68.884499 49.484333 29.285515 9.188210 -4.855942 9.308752 -5.181716 -1.032835 10.850535 -0.385878 0.690580 -4.619788 -15.516820 -36.339573 24.469662 4.651776 2.065357 -16.419529 -9.235936 1.009873 
-4.481241 50.953762 17.535940 -6.904297 6.103516 31.778381 40.611820 -4.075832 -13.574162 -20.146484 8.623047 -0.957031 51.063168 8.107644 2.471410 -61.689457 -13.017576 4.189453 2.000000 -2.000000 0.000000 -86.376953 20.039063 4.843750 -69.206070 -1.067171 -2.584713 17.719318 58.965965 25.044277 -2.000000 2.000000 0.000000 79.990234 -45.488281 1.506710 71.460838 1.074656 -2.545347 -49.728676 -68.916367 48.582050 21.979120 9.880934 -5.281876 19.022160 -5.000339 -1.880578 25.316027 0.408424 3.137944 -3.752522 -13.459686 -36.773891 22.699924 4.719631 2.050540 -15.543173 -11.858884 -0.917023 
-4.529253 50.868481 18.872015 -6.357422 5.058594 31.602421 39.540329 -3.816729 -13.344304 -20.654297 9.169922 -0.595703 51.063168 8.107644 2.471410 -60.488277 -13.515624 3.610998 2.000000 -2.000000 0.000000 -87.548828 24.433596 2.611463 -68.318901 -0.923763 -2.641948 18.544724 60.291527 27.271255 -2.000000 2.000000 0.000000 82.119141 -45.087891 -1.533203 71.807251 1.064777 -2.712333 -48.703770 -68.796898 47.278316 20.805384 11.110385 -4.201094 17.956131 -4.973450 -1.797997 37.272453 2.104076 7.104620 -3.118390 -11.739581 -36.113964 21.291815 4.787808 1.791808 -13.213803 -12.540173 -0.080313 
-4.593473 51.469284 20.189342 -5.478515 4.023438 31.426472 38.292110 -3.859513 -12.916711 -20.810547 9.511720 -0.398777 51.063168 8.107644 2.471410 -59.267578 -14.003905 3.203125 2.000000 -2.000000 0.000000 -87.187500 29.160154 3.476563 -67.798416 -1.113086 -2.533150 19.309553 61.499557 26.372524 -2.000000 2.000000 0.000000 83.574219 -44.677734 -3.649444 72.342384 0.865268 -2.645498 -48.161381 -68.100677 46.105053 15.906073 11.443813 -1.631450 27.653515 -4.613965 -2.541465 33.665291 5.926941 7.959661 -3.008649 -10.046922 -34.660446 20.582344 4.798517 1.900489 -10.605946 -13.215431 1.318211 
-4.646460 51.822884 21.443140 -4.238281 2.978516 30.361336 36.835781 -4.083934 -12.193404 -20.605471 10.029297 0.078125 51.063168 8.107644 2.471410 -58.408207 -14.453124 3.027343 2.000000 -2.000000 0.000000 -85.058594 33.818359 6.636296 -67.458321 -1.273037 -2.592294 20.044067 62.658958 24.157402 -2.000000 2.000000 0.000000 82.207031 -44.121094 -2.783203 72.870270 0.866399 -2.664989 -46.145222 -66.067085 42.873516 9.935790 11.772687 1.619383 39.466236 -4.417336 -3.017165 18.896105 10.198510 4.539573 -3.233020 -8.572173 -33.030548 19.689911 4.836730 1.823983 -7.696996 -14.085214 2.238717 
-4.635722 52.038097 22.638386 -2.119140 2.089844 28.750357 35.181477 -4.849768 -11.248220 -20.244141 10.371095 0.537109 51.063168 8.107644 2.471410 -57.724606 -14.882812 3.063897 2.000000 -2.000000 0.000000 -83.603516 37.265625 8.134767 -67.097343 -0.961062 -2.610443 19.971348 63.742626 21.903265 -2.000000 2.000000 0.000000 79.208984 -43.164063 -0.211759 73.397903 0.847467 -2.675866 -44.703899 -63.408463 39.627136 4.753728 12.399105 5.530525 48.601372 -3.768185 -3.734216 4.990783 12.376804 2.519070 -3.984580 -7.490462 -31.731707 17.937403 4.903207 1.689327 -3.851424 -14.090824 3.062606 
-4.612174 52.345787 24.118414 0.166016 1.230469 26.357426 33.150032 -5.469857 -10.166164 -19.687502 10.693359 1.044922 51.063168 8.107644 2.471410 -57.031250 -15.136717 2.917371 2.000000 -2.000000 0.000000 -85.527344 39.101563 3.472958 -66.745247 -0.959930 -2.590952 20.859411 63.781975 23.171415 -2.000000 2.000000 0.000000 76.435547 -41.337891 2.474020 73.925545 0.818784 -2.687308 -44.861279 -62.473480 38.472797 -0.312784 12.751979 7.947032 51.375381 -3.895239 -4.046692 0.697022 11.981112 1.881254 -4.911594 -6.749729 -30.793007 17.019438 4.921187 1.606522 -4.684628 -12.834075 2.254016 
-4.483299 52.525578 25.636625 2.636719 0.498047 23.925781 31.264938 -6.428268 -8.880103 -18.964846 10.820313 1.396485 51.063168 8.107644 2.471410 -56.513672 -15.371092 2.966162 2.000000 -2.000000 0.000000 -88.681641 39.160152 -3.997739 -66.383636 -0.969113 -2.580639 20.912153 63.245365 24.640074 -2.000000 2.000000 0.000000 73.027344 -37.177734 5.814411 74.101326 0.818784 -2.687308 -48.634270 -64.405640 42.042622 -5.008237 13.292755 9.790101 51.196106 -3.956586 -4.049606 -1.399907 9.449372 0.849122 -5.692196 -6.155029 -30.213383 15.950148 4.971373 1.330533 -5.407728 -11.668336 1.600699 
-4.186299 52.745224 27.211311 4.902344 0.166016 21.445339 29.363857 -7.130539 -7.642022 -18.232422 11.132813 1.955011 51.063168 8.107644 2.471410 -56.171875 -15.576171 3.056640 2.000000 -2.000000 0.000000 -91.357422 39.619144 -9.651974 -66.207588 -0.968547 -2.570894 21.124907 63.054668 26.353754 -2.000000 2.000000 0.000000 69.628906 -31.904299 9.115932 74.621269 0.901867 -2.770646 -56.430824 -68.216339 49.896252 -8.768990 13.397105 11.759268 48.724228 -3.724051 -3.919371 -2.716269 7.979769 -0.007149 -5.858662 -5.885309 -28.808498 14.897025 5.049959 0.950624 -5.894582 -10.812005 0.992560 
